<?xml version="1.0" standalone="no"?>
<!DOCTYPE svg PUBLIC "-//W3C//DTD SVG 20010904//EN"
 "http://www.w3.org/TR/2001/REC-SVG-20010904/DTD/svg10.dtd">
<svg version="1.0" xmlns="http://www.w3.org/2000/svg"
 width="64.000000pt" height="64.000000pt" viewBox="0 0 64.000000 64.000000"
 preserveAspectRatio="xMidYMid meet">
<metadata>
Created by potrace 1.16, written by Peter Selinger 2001-2019
</metadata>
<g transform="translate(0.000000,64.000000) scale(0.100000,-0.100000)"
fill="#000000" stroke="none">
<path d="M300 565 l0 -75 -150 0 c-93 0 -150 -4 -150 -10 0 -6 57 -10 150 -10
127 0 150 -2 150 -15 0 -11 -12 -15 -50 -15 l-50 0 0 -200 0 -200 -100 0 c-93
0 -100 -1 -100 -20 0 -20 7 -20 320 -20 l320 0 0 320 0 320 -170 0 -170 0 0
-75z m220 -360 l0 -165 -155 0 -155 0 0 165 0 165 155 0 155 0 0 -165z"/>
<path d="M290 271 c-52 -51 -52 -111 0 -162 42 -43 100 -41 146 5 28 28 34 42
34 76 0 34 -6 48 -34 76 -46 46 -104 48 -146 5z m141 -10 c23 -23 29 -38 29
-71 0 -117 -167 -139 -196 -26 -25 100 94 169 167 97z"/>
</g>
</svg>
